PathFileType	4	(X/Y/Z)	RBDS028\RBDS028runT25.trc
DataRate	CameraRate	NumFrames	NumMarkers	Units	OrigDataRate	OrigDataStartFrame	OrigNumFrames
150.000000	150.000000	6	33	mm	150.000000	1687	4500
Frame#	Time	L.ASIS			L.Heel.Bottom			L.Heel.Lateral			L.Heel.Top			L.Iliac.Crest			L.MT1			L.MT5			L.PSIS			L.Shank.Bottom.Lateral			L.Shank.Bottom.Medial			L.Shank.Top.Lateral			L.Shank.Top.Medial			L.Thigh.Bottom.Lateral			L.Thigh.Bottom.Medial			L.Thigh.Top.Lateral			L.Thigh.Top.Medial			R.ASIS			R.ASY			R.Heel.Bottom			R.Heel.Lateral			R.Heel.Top			R.Iliac.Crest			R.MT1			R.MT5			R.PSIS			R.Shank.Bottom.Lateral			R.Shank.Bottom.Medial			R.Shank.Top.Lateral			R.Shank.Top.Medial			R.Thigh.Bottom.Lateral			R.Thigh.Bottom.Medial			R.Thigh.Top.Lateral			R.Thigh.Top.Medial			
		X1	Y1	Z1	X2	Y2	Z2	X3	Y3	Z3	X4	Y4	Z4	X5	Y5	Z5	X6	Y6	Z6	X7	Y7	Z7	X8	Y8	Z8	X9	Y9	Z9	X10	Y10	Z10	X11	Y11	Z11	X12	Y12	Z12	X13	Y13	Z13	X14	Y14	Z14	X15	Y15	Z15	X16	Y16	Z16	X17	Y17	Z17	X18	Y18	Z18	X19	Y19	Z19	X20	Y20	Z20	X21	Y21	Z21	X22	Y22	Z22	X23	Y23	Z23	X24	Y24	Z24	X25	Y25	Z25	X26	Y26	Z26	X27	Y27	Z27	X28	Y28	Z28	X29	Y29	Z29	X30	Y30	Z30	X31	Y31	Z31	X32	Y32	Z32	X33	Y33	Z33	

1688	11.24666666666667	2101.362276237027	823.6990617021006	904.9919616302485	1883.664576217188	34.99196558146561	1037.76903762404	1912.207619842457	50.60232989157723	992.9008467099987	1898.597128107541	77.92810220565599	1038.733915741667	2021.097627522589	850.7661202813368	884.0453825002722	2106.343822589424	33.53999151840212	1068.958268156667	2061.121031817153	30.98846925634619	961.4528478400415	1953.512933192323	827.2553341647279	998.5442437554567	2000.113803104743	140.9842599510426	964.8313867442796	1965.663849120063	167.1633639409571	992.7678989197839	2025.688762492509	208.8613151718263	928.7441262673464	1997.864901670758	239.3865906554656	962.9344008241442	2132.5137440094	495.6290794577061	859.7314848794509	2072.322949516736	476.1528856827942	895.4574902478026	2094.077887321286	598.6949110238388	851.8129455171375	2037.778029960776	579.7052338187294	887.4804745948863	2124.166080274275	810.5129535780982	1145.003715721776	1838.918929156779	208.790043142716	1112.466891502324	1757.865142296711	375.8579872460369	1075.964526757029	1778.17597193115	354.672758220671	1123.302837009512	1803.193334228853	372.7445603753408	1079.629420224045	2071.13770768109	866.5011221974914	1170.709913263963	1804.658431861122	160.3417037689647	1067.004155015112	1782.626643200262	206.4437828570382	1169.361456118165	1966.096372704887	824.0654534885907	1087.112560761258	1898.239571021137	337.8494254838867	1150.841197674055	1895.308632838117	374.5750226745936	1109.193481970598	1971.150811968296	368.3968992169546	1170.448075574358	1968.09973166239	402.1633053171475	1128.646782291455	2164.781672194119	476.3400674973386	1203.575773405136	2110.798672504431	454.4212145653134	1162.628968711728	2121.361300740633	578.5333479832819	1206.080818182728	2067.682643066167	555.5148157156477	1170.958315277256	
1689	11.25333333333333	2099.267972110449	823.9589798709357	904.3953210145947	1866.97216351745	36.47497622824834	1037.912845023782	1895.54390371976	51.73993938427148	992.9720232822546	1882.203048637844	79.33221444400111	1038.717943910574	2018.270216655929	851.0376510026716	883.5687052114927	2089.435801303349	33.34679591290025	1069.108542248413	2043.888478233403	30.97764888042303	961.5460276643615	1951.816149099657	828.2470100572812	998.411195973292	1984.26059973509	141.8038231419441	964.6984147582123	1950.401707651265	168.6212662542583	992.8200674679275	2010.842008406304	209.2242762343946	928.4559329361184	1983.748165344645	240.2499670664704	962.7836319566798	2122.992716532146	494.4201908226943	858.725879998427	2062.386154070024	476.3455570096964	894.443908420901	2086.946580075552	598.409208044613	851.0831662983487	2030.464246457803	580.7521543469841	887.107612454543	2122.640064431315	810.3865609850775	1144.628489815418	1856.250049085929	204.5492640040131	1113.800533795117	1768.923415566032	368.7860040900583	1079.562919414679	1790.835735974246	348.2454071235639	1126.503818228544	1814.435442917482	367.269028985971	1082.324138492203	2068.550571423071	866.5728756154269	1170.548675101488	1822.873199360506	155.1600866592414	1068.606682943405	1801.038015823487	200.0033935691381	1171.669550750636	1964.548054475578	824.799175339774	1086.854068368881	1911.755022510175	334.5805265876196	1152.306390247084	1907.39064260396	371.6409037643807	1111.031347664431	1984.121695699759	366.818609701237	1171.298086305089	1979.654193917824	400.9475322472895	1129.88896919563	2174.361442626915	479.8409659133404	1202.861751035922	2120.47565033239	455.8299948100726	1162.760266629678	2127.383235842344	580.4183558738926	1205.7266721922	2073.817619768322	555.3967017216517	1171.655699108143	
1690	11.26	2097.254496907851	824.5985400047017	903.5752074326128	1850.250229136667	38.12762145819467	1038.04902689357	1878.869808704019	53.04081913607327	993.0541694175693	1865.797383026043	80.90366547035494	1038.709666117413	2015.848809974326	851.9841345251816	882.9265632307986	2072.432300590658	33.20963464170511	1069.337684255778	2026.609617403293	31.04284654247719	961.7010733713018	1950.263874916854	829.772751264253	998.0956896143596	1968.256597764615	142.8844073756233	964.69951344475	1934.937060843451	170.2373908002216	993.007557818497	1995.710279605506	209.9322571768458	928.3647445776634	1969.280201864903	241.3514599439766	962.8353295897771	2113.049351634242	493.5970439467524	858.1181134654342	2052.065886849405	477.1090874535586	893.9212058438562	2079.564052555255	598.488665581869	850.5356426900247	2022.912168846655	582.3234211243099	886.9898053786081	2121.391626052984	810.9213675534927	1143.95111884688	1874.017813199237	199.7881848871037	1115.154927969625	1779.922599896244	360.4374896806462	1082.648494356161	1803.407137637923	340.802013919538	1129.195557190504	1825.511516757997	360.7061976832172	1084.569890854411	2066.533155397494	867.3199909194093	1170.126799921733	1841.842493470261	149.2141561437736	1070.32705216743	1819.893904645565	193.00862214888	1173.86415037301	1963.173103358583	826.1094461636105	1086.447823609695	1925.089222760311	331.0157208604437	1153.435906016431	1919.137012402095	368.1991879844299	1112.445209679165	1996.680692332105	365.339326916654	1171.757132779285	1990.643084405409	399.6294345573957	1130.655252354277	2183.434305495741	484.3321861625611	1201.844390171721	2129.747237197667	458.2954080520341	1162.483933293408	2133.091217060799	583.2144970864255	1205.040877198301	2079.755478623383	556.2974516697165	1171.897850602104	
1691	11.26666666666667	2095.340056693792	825.6206264066072	902.5354026172264	1833.55337290485	40.04331417975249	1038.134866598681	1862.243553039746	54.55476251763218	993.0931041604015	1849.444834497006	82.72462074516947	1038.63343507729	2013.86594838801	853.5829367308705	882.1682845675829	2055.364175743081	33.15427191667931	1069.591441434963	2009.331342695461	31.16642115374264	961.8811913620686	1948.868250034197	831.8040128022179	997.641000312564	1952.205882670979	144.297985049423	964.754832314783	1919.376235847151	172.0803784978266	993.2482359084657	1980.417772584979	211.0578573289719	928.4053663493573	1954.576124782571	242.767584501674	963.0221147003668	2102.828877679394	493.2315377276169	857.9146697886086	2041.516361228039	478.4831419590304	893.8832075384072	2072.040448569516	598.979663822266	850.1804893396578	2015.236572500253	584.4395563982024	887.1198455259845	2120.441408959593	812.1284986689259	1142.963765436514	1892.206445376022	194.5863916563397	1116.489751395499	1790.947606847037	350.8541575195704	1085.161107913598	1815.93685217349	332.3829337725586	1131.329149101116	1836.485752822464	353.0836448317554	1086.323894577656	2065.118844790889	868.7311303882849	1169.451266610682	1861.575763091821	142.6148857444028	1072.13012889668	1839.185922903974	185.5692886448334	1175.909646577358	1961.985029910594	827.9740892871886	1085.935838982703	1938.242326307983	327.15841172094	1154.199824792186	1930.56825935371	364.2382366285806	1113.406442354643	2008.796387087604	363.9280807076948	1171.814363415356	2001.060955146	398.1603910775772	1130.930732964699	2191.92703862679	489.7186284862717	1200.543078683718	2138.526557611851	461.7536998962524	1161.815391522071	2138.444499053415	586.8659632006101	1204.043586059666	2085.437159286621	558.1777465636554	1171.708955156837	
1692	11.27333333333333	2093.551635875379	827.0268086392646	901.2991647052813	1816.941134805776	42.3203301491461	1038.135959889526	1845.724957862318	56.33630691043328	993.0416056826814	1833.21782530915	84.88014057871943	1038.423489676354	2012.339875854936	855.8172088327445	881.351522285264	2038.264812336073	33.19041261953247	1069.812961058389	1992.093950135722	31.32973691399981	962.0469813136303	1947.643975234279	834.3132520712504	997.0868704647756	1936.209094161197	146.1114149462568	964.7836568714717	1903.828279147727	174.215767161615	993.4672680471265	1965.083057350916	212.6660054409715	928.5093404938223	1939.753510446665	244.5685255957137	963.2796997083906	2092.47534593661	493.3871057961075	858.092440659982	2030.889814545669	480.4953003899723	894.2917068074429	2064.485941729321	599.9243692969493	850.0134779353847	2007.553817320583	587.1136323061348	887.4731576575882	2119.787598580944	814.0108120526731	1141.684417183911	1910.815728542935	189.0271189033539	1117.750523936641	1802.095823966078	340.0993739230474	1087.076388106285	1828.494023319541	323.0404346013722	1132.890251212498	1847.443989301663	344.4491049815397	1087.568482669715	2064.291795496183	870.8013074748936	1168.545356712113	1882.084919506858	135.4926105495014	1073.960524977557	1858.926937844333	177.7868830402927	1177.76787614627	1960.992440170544	830.3778563508156	1085.359088685977	1951.232781470033	323.0064955261724	1154.581775281646	1941.72590361593	359.7508376201309	1113.905172823961	2020.460866643659	362.5356574399608	1171.470354501419	2010.927468882852	396.4845184901894	1130.719347880386	2199.783160779584	495.8765492698501	1198.980586627637	2146.741699631335	466.111711888154	1160.776727879811	2143.414261051405	591.2902357748917	1202.767977361573	2090.807617913072	560.9670791017332	1171.135351615196	
1693	11.28	2091.924662243369	828.812128066886	899.9068597010355	1800.47480763973	45.05319202768874	1038.029603094162	1829.372558145234	58.44111687052941	992.8652175397617	1817.192460597807	87.45021865050919	1038.031632868764	2011.283145289971	858.6717378859788	880.5327191984132	2021.169096590185	33.31251071689421	1069.949324399614	1974.928806484223	31.51677965645304	962.1616848327908	1946.608712151441	837.2728885965021	996.4635370379444	1920.357306898326	148.379784391805	964.7145240371025	1888.396139590905	176.6995750860188	993.6055530016019	1949.811606662258	214.8081330878676	928.6137923385216	1924.92454377551	246.8114560380989	963.5547478499523	2082.11992619816	494.1104691416054	858.6031724797758	2020.325493974251	483.1571602146827	895.0845722813406	2057.001886557091	601.3535882028842	850.0171778345815	1999.973419026088	590.3478113831525	888.012699645452	2119.408723391371	816.5605563963841	1140.155120392716	1929.857043786168	183.193750864664	1118.87187698964	1813.473715614079	328.2575411452212	1088.406902184551	1841.167086966458	312.8373238803446	1133.899288742016	1858.489082959018	334.8684171613506	1088.313709656454	2063.993658341329	873.5274255638723	1167.446401382517	1903.378318110138	127.9918406757981	1075.743396117663	1879.145934807878	169.7505516811142	1179.397355613717	1960.199548151129	833.307801518224	1084.750729707719	1964.095156640976	318.5543995645622	1154.580903041723	1952.669395940251	354.7352783469104	1113.950694720761	2031.688782581165	361.0992955508269	1170.737682302614	2020.285363760554	394.542143179923	1130.043394173059	2206.961393958235	502.6608565997363	1197.181344415314	2154.3359185118	471.251654728709	1159.394485514972	2147.98202204192	596.3823180799222	1201.255791243934	2095.817778019273	564.568456812979	1170.237325871861	
